<?xml version="1.0" encoding="UTF-8"?>
<svg width="281px" height="127px" viewBox="0 0 281 127" version="1.1" xmlns="http://www.w3.org/2000/svg" xmlns:xlink="http://www.w3.org/1999/xlink">
    <!-- Generator: Sketch 56.2 (81672) - https://sketch.com -->
    <title>zaeem</title>
    <desc>Created with Sketch.</desc>
    <g id="Symbols" stroke="none" stroke-width="1" fill="none" fill-rule="evenodd">
        <g id="zaeem" fill="#FFFFFF" fill-rule="nonzero">
            <path d="M256,0 L281,0 L281,25 L256,25 L256,0 Z M255.5,50 L281,50 L281,127 L255.5,127 L179,127 L179,101.333333 L255.5,101.333333 L255.5,50 Z M152.666667,50.8 L152.666667,0 L229,0 L229,25.4 L178.111111,25.4 L178.111111,50.8 L229,50.8 L229,76.2 L76.3333333,76.2 L25.4444444,76.2 L25.4444444,50.8 L50.8888889,50.8 L50.8888889,25.4 L25.4444444,25.4 L25.4444444,50.8 L25.4444444,101.6 L50.8888889,101.6 L50.8888889,127 L25.4444444,127 L-5.68434189e-14,127 L-5.68434189e-14,0 L76.3333333,0 L76.3333333,50.8 L101.777778,50.8 L101.777778,0 L127.222222,0 L127.222222,50.8 L152.666667,50.8 Z M129,102 L154,102 L154,127 L129,127 L129,102 Z M77,102 L102,102 L102,127 L77,127 L77,102 Z"></path>
        </g>
    </g>
</svg>